<svg width="1200" height="520" viewBox="0 0 1200 520" fill="none" xmlns="http://www.w3.org/2000/svg">
  <rect width="1200" height="520" rx="24" fill="#0E1116"/>
  <rect x="24" y="24" width="1152" height="472" rx="20" fill="#131922" stroke="rgba(255,255,255,0.08)"/>

  <text x="140" y="88" fill="#F5F7FA" font-family="Space Grotesk, Arial, sans-serif" font-size="28" font-weight="600">Robot</text>
  <text x="870" y="88" fill="#F5F7FA" font-family="Space Grotesk, Arial, sans-serif" font-size="28" font-weight="600">PC / Laptop</text>

  <image href="robot-ethernet-port-white.png" x="90" y="130" width="360" height="360" preserveAspectRatio="xMidYMid meet"/>

  <g transform="translate(810 160)">
    <rect x="0" y="0" width="260" height="170" rx="12" stroke="#FFFFFF" stroke-width="4"/>
    <rect x="18" y="18" width="224" height="120" rx="6" stroke="#FFFFFF" stroke-width="3"/>
    <path d="M95 170H165L190 205H70L95 170Z" stroke="#FFFFFF" stroke-width="4" fill="none"/>
    <path d="M110 205H150" stroke="#FFFFFF" stroke-width="4" stroke-linecap="round"/>
  </g>

  <path d="M430 300C520 300 565 300 635 300C705 300 760 260 810 245" stroke="#8BEA6A" stroke-width="8" stroke-linecap="round"/>
  <path d="M505 300C505 278 523 260 545 260H620C642 260 660 278 660 300" stroke="#8BEA6A" stroke-width="8" stroke-linecap="round"/>
  <path d="M505 300C505 322 523 340 545 340H620C642 340 660 322 660 300" stroke="#8BEA6A" stroke-width="8" stroke-linecap="round"/>

  <circle cx="430" cy="300" r="10" fill="#8BEA6A"/>
  <circle cx="810" cy="245" r="10" fill="#8BEA6A"/>

  <text x="525" y="228" fill="#8BEA6A" font-family="Space Grotesk, Arial, sans-serif" font-size="24" font-weight="600">LAN Cable</text>
  <text x="92" y="456" fill="#B8C0C8" font-family="Space Grotesk, Arial, sans-serif" font-size="20">Connect an Ethernet cable to the robot LAN port</text>
  <text x="808" y="394" fill="#B8C0C8" font-family="Space Grotesk, Arial, sans-serif" font-size="20">Connect the other end to the operator PC or laptop</text>
</svg>
